# xmcd CD database file generated by OrangeCD 6.3
#
# Track frame offsets:
#	150
#	23850
#	37832
#	50220
#	65980
#	86068
#	106174
#	114579
#	137152
#	163075
#	179375
#	199833
#	212386
#	248304
#	270519
#	285459
#	302604
#	320917
#
# Disc length: 4526 seconds
#
# Revision: 0
# Processed by: cddbd v1.5.2PL0 Copyright (c) Steve Scherf et al.
# Submitted via: OrangeCD 6.3
#
DISCID=0311ac12
DTITLE=Various Artist - Stormy Blues
DYEAR=2005
DGENRE=Blues
TTITLE0=JOHN CAMPBELL - Ain't Afraid Of Midnight
TTITLE1=ALBERT COLLINS - Travellin' South
TTITLE2=TINSLEY ELLIS - The Next Miss Wrong
TTITLE3=GEORGE THOROGOOD - Back To Wentzville
TTITLE4=JOHNNY WINTER - Mad Dog
TTITLE5=BLUES COUSINS - Moscow Boogie
TTITLE6=STEVIE RAY VAUGHAN - Scuttle Buttin'
TTITLE7=DAVE HOLE - Tore Down
TTITLE8=RORY GALLAGHER - Secret Agent
TTITLE9=RORY GALLAGHER - Just Hit Town
TTITLE10=OMAR AND THE HOWLERS - Next Big Thing
TTITLE11=STEVIE RAY VAUGHAN - Mary Had A Little Lamb
TTITLE12=JUNIOR WELLS - Cry For Me Baby
TTITLE13=JIMMY DAWKINS - Guitar Rapp
TTITLE14=STEVE MORSE BAND - General Lee
TTITLE15=C.J.CHENIER - Lost In The Shuffle
TTITLE16=RON LEVY'S WILD KINGDOM - Mo Chain Smokin
TTITLE17=KING B. and B.B.B. - Why People Like That
EXTD=
EXTT0=
EXTT1=
EXTT2=
EXTT3=
EXTT4=
EXTT5=
EXTT6=
EXTT7=
EXTT8=
EXTT9=
EXTT10=
EXTT11=
EXTT12=
EXTT13=
EXTT14=
EXTT15=
EXTT16=
EXTT17=
PLAYORDER=
